<?xml version="1.0" encoding="UTF-8"?>
<svg id="Layer_1" xmlns="http://www.w3.org/2000/svg" version="1.1" viewBox="0 0 1024 1024">
  <!-- Generator: Adobe Illustrator 30.1.0, SVG Export Plug-In . SVG Version: 2.1.1 Build 136)  -->
  <defs>
    <style>
      .st0, .st1 {
        fill-rule: evenodd;
      }

      .st1 {
        fill: #ffc700;
      }
    </style>
  </defs>
  <path class="st1" d="M936.23,490.62l-15.75-6.75-15.75-1.13-18,5.63-36.01,27.01-27.01,3.38-452.36,453.49,222.8,1.13,189.05-190.17v-56.26l10.13-28.13,12.38-11.25,18-6.75,24.76,1.13,18,7.88,121.53-121.53-6.75-22.51-19.13-31.51-25.88-23.63ZM786.57,274.57l-181.17-1.13L31.51,847.33v124.91l101.27,1.13L786.57,319.58v-45.01ZM524.38,97.9l-21.38-20.25-34.88-18-36.01-9-42.76-1.13-109.15,109.15,6.75,18,21.38,23.63,5.63,11.25,2.25,22.51-9,21.38-13.5,11.25-21.38,6.75h-106.9L31.51,408.47v78.77l3.38,1.13,34.88-24.76,29.26-6.75,36.01,3.38,36.01,16.88L533.38,114.78l-9-16.88Z"/>
  <path class="st0" d="M2.25,254.31v254.31l27.01,12.38,64.14-36.01,41.64,3.38,43.89,39.38,16.88,54.01-12.38,67.52-40.51,42.76-49.51,5.63-57.39-34.88-23.63,4.5-11.25,14.63-1.13,309.45,7.88,10.13,792.19,2.25,11.25-7.88,4.5-282.44,23.63-7.88,61.89,32.63,59.64-12.38,51.76-60.76,11.25-68.64-20.25-75.39-49.51-51.76-59.64-12.38-57.39,34.88-21.38-9-2.25-222.8-7.88-11.25-266.69-6.75-7.88-21.38,36.01-65.27-12.38-64.14-63.02-52.89-94.52-18-90.02,23.63-51.76,48.39-11.25,55.14,12.38,36.01,30.38,38.26-9,21.38-265.56,3.38-10.13,7.88ZM962.11,514.25l19.13,31.51,6.75,22.51-121.53,121.53-18-7.88-24.76-1.13-18,6.75-12.38,11.25-10.13,28.13v56.26l-189.05,190.17-222.8-1.13,452.36-453.49,27.01-3.38,36.01-27.01,18-5.63,15.75,1.13,15.75,6.75,25.88,23.63ZM786.57,274.57v45.01L132.78,973.36l-101.27-1.13v-124.91L605.4,273.44l181.17,1.13ZM524.38,97.9l9,16.88L171.04,477.12l-36.01-16.88-36.01-3.38-29.26,6.75-34.88,24.76-3.38-1.13v-78.77l133.91-135.03h106.9l21.38-6.75,13.5-11.25,9-21.38-2.25-22.51-5.63-11.25-21.38-23.63-6.75-18,109.15-109.15,42.76,1.13,36.01,9,34.88,18,21.38,20.25Z"/>
</svg>